<?xml version="1.0" encoding="utf-8"?>
<!-- Generator: Adobe Illustrator 28.2.0, SVG Export Plug-In . SVG Version: 6.00 Build 0)  -->
<svg version="1.1" xmlns="http://www.w3.org/2000/svg" xmlns:xlink="http://www.w3.org/1999/xlink" x="0px" y="0px"
	 viewBox="0 0 1203.3 388.4" style="enable-background:new 0 0 1203.3 388.4;" xml:space="preserve">
<style type="text/css">
	.st0{display:none;}
	.st1{display:inline;stroke:#FFFFFF;stroke-miterlimit:10;}
	.st2{fill:none;}
	.st3{fill:#000093;}
	.st4{font-family:'Arvo-Bold';}
	.st5{font-size:380.7072px;}
	.st6{letter-spacing:-37;}
	.st7{letter-spacing:-20;}
	.st8{display:inline;}
	.st9{opacity:0.8;fill:url(#path3474_00000075878925486245070060000012075667822259316671_);enable-background:new    ;}
	.st10{fill:#445800;}
	.st11{fill:#8BB300;}
	.st12{fill:#638000;}
	.st13{fill:url(#path1432_00000109707801247500878110000017628386544603951802_);}
	
		.st14{opacity:0.8;fill:none;stroke:url(#path3431_00000172430188242769693410000010440587308915108774_);stroke-linecap:round;enable-background:new    ;}
	.st15{opacity:0.6;fill:url(#path3451_00000092421222883489792600000002734392418795622797_);enable-background:new    ;}
	.st16{fill:none;stroke:#FFFFFF;stroke-width:20;stroke-linejoin:round;stroke-miterlimit:10;}
	.st17{font-size:95.1768px;}
</style>
<g id="Layer_3" class="st0">
	<rect x="-156.1" y="-184.8" class="st1" width="1615.9" height="808.4"/>
</g>
<g id="svg2" xmlns:cc="http://creativecommons.org/ns#" xmlns:ns1="http://sozi.baierouge.fr" xmlns:dc="http://purl.org/dc/elements/1.1/" xmlns:rdf="http://www.w3.org/1999/02/22-rdf-syntax-ns#" xmlns:sodipodi="http://sodipodi.sourceforge.net/DTD/sodipodi-0.dtd" xmlns:inkscape="http://www.inkscape.org/namespaces/inkscape">
	
		<sodipodi:namedview  bordercolor="#666666" borderopacity="1" gridtolerance="10" guidetolerance="10" id="namedview36" inkscape:current-layer="svg2" inkscape:cx="23.076923" inkscape:cy="22.5" inkscape:pageopacity="0" inkscape:pageshadow="2" inkscape:window-height="645" inkscape:window-maximized="0" inkscape:window-width="760" inkscape:window-x="0" inkscape:window-y="0" inkscape:zoom="4.9166667" objecttolerance="10" pagecolor="#ffffff" showgrid="false">
		</sodipodi:namedview>
	<rect x="357.9" y="66.8" class="st2" width="907.2" height="338.5"/>
	<text transform="matrix(1 0 0 1 357.9295 356.0045)"><tspan x="0" y="0" class="st3 st4 st5 st6">C</tspan><tspan x="251.6" y="0" class="st3 st4 st5 st7">url</tspan></text>
	<path class="st3" d="M306.4,32.3H135.9H79.5c-26.8,0-48.5,21.7-48.5,48.5v226.9c0,26.8,21.7,48.5,48.5,48.5h226.9
		c26.8,0,48.5-21.7,48.5-48.5V80.8C354.9,54,333.2,32.3,306.4,32.3z"/>
</g>
<g id="Layer_4" class="st0">
	<g id="layer1" transform="translate(-.92308 -1.5)" class="st8">
		
			<radialGradient id="path3474_00000117649798845407690910000008372574427438558364_" cx="195.1968" cy="-2970.5327" r="177.2765" gradientTransform="matrix(1 0 0 -0.1455 -1.3001 -78.6609)" gradientUnits="userSpaceOnUse">
			<stop  offset="0" style="stop-color:#2E3436"/>
			<stop  offset="1" style="stop-color:#2E3436;stop-opacity:0"/>
		</radialGradient>
		
			<path id="path3474" inkscape:connector-curvature="0" style="opacity:0.8;fill:url(#path3474_00000117649798845407690910000008372574427438558364_);enable-background:new    ;" d="
			M371.2,353.7c0,14.2-79.4,25.8-177.3,25.8S16.6,367.9,16.6,353.7c0-14.2,79.4-25.8,177.3-25.8S371.2,339.4,371.2,353.7z"/>
		<path id="rect2653" class="st10" d="M78.7,33.8h230.5c25.5,0,46.1,20.6,46.1,46.1v230.5c0,25.5-20.6,46.1-46.1,46.1H78.7
			c-25.5,0-46.1-20.6-46.1-46.1V79.9C32.6,54.4,53.2,33.8,78.7,33.8z"/>
		<path id="path2659" inkscape:connector-curvature="0" class="st11" d="M78.7,42.2c-21,0-37.7,16.6-37.7,37.7v230.5
			c0,21,16.6,37.7,37.7,37.7h230.5c21,0,37.7-16.6,37.7-37.7V79.9c0-21-16.6-37.7-37.7-37.7H78.7L78.7,42.2z"/>
		<g id="g2837">
			<path id="path2830" inkscape:connector-curvature="0" class="st12" d="M133.2,42.2v113.3c-15,0.1-26.4,0.2-54.7,0.2
				c-3.5,0-6.8,2.1-8.2,5.3c-1.4,3.2-0.7,7,1.7,9.6l118.3,128.7c1.7,1.8,4.2,2.9,6.7,2.9c2.5,0,4.8-1.2,6.5-3.1l112.6-128.9
				c2.2-2.6,2.6-6.2,1.2-9.4c-1.4-3.1-4.5-5.3-7.9-5.3c-28.5,0-39.7,0-54.7,0V42.2L133.2,42.2L133.2,42.2z"/>
			
				<radialGradient id="path1432_00000047752112227561848140000003956889460517042622_" cx="118.3907" cy="452.6895" r="125.7925" gradientTransform="matrix(1.6866 -1.5931 -1.7876 -1.8926 803.4286 1403.3718)" gradientUnits="userSpaceOnUse">
				<stop  offset="0" style="stop-color:#D3D7CF"/>
				<stop  offset="1" style="stop-color:#FFFFFF"/>
			</radialGradient>
			
				<path id="path1432" inkscape:connector-curvature="0" style="fill:url(#path1432_00000047752112227561848140000003956889460517042622_);" d="
				M142,42.2v122.2c-18.9,0-30.6,0.2-63.6,0.2l118.3,128.7l112.6-128.9c-33.1-0.1-44.7,0-63.6,0V42.2L142,42.2L142,42.2z"/>
		</g>
		
			<linearGradient id="path3431_00000090998342692933708340000016955574113546551991_" gradientUnits="userSpaceOnUse" x1="194.8201" y1="342.9026" x2="194.8201" y2="45.6667" gradientTransform="matrix(1 0 0 -1 -0.9231 389.3919)">
			<stop  offset="0" style="stop-color:#FFFFFF;stop-opacity:0.8"/>
			<stop  offset="1" style="stop-color:#FFFFFF;stop-opacity:0"/>
		</linearGradient>
		
			<path id="path3431" inkscape:connector-curvature="0" style="opacity:0.8;fill:none;stroke:url(#path3431_00000090998342692933708340000016955574113546551991_);stroke-linecap:round;enable-background:new    ;" d="
			M78.7,47c-18.5,0-32.9,14.4-32.9,32.9v230.5c0,18.5,14.4,32.9,32.9,32.9h230.5c18.5,0,32.9-14.4,32.9-32.9V79.9
			c0-18.5-14.4-32.9-32.9-32.9H78.7L78.7,47z"/>
		
			<linearGradient id="path3451_00000171715310192414486510000015409022875844649388_" gradientUnits="userSpaceOnUse" x1="122.9785" y1="834.1826" x2="209.049" y2="128.0697" gradientTransform="matrix(1 0 0 -1 -0.9231 389.3919)">
			<stop  offset="0" style="stop-color:#EEEEEC"/>
			<stop  offset="1" style="stop-color:#EEEEEC;stop-opacity:0"/>
		</linearGradient>
		
			<path id="path3451" inkscape:connector-curvature="0" style="opacity:0.6;fill:url(#path3451_00000171715310192414486510000015409022875844649388_);enable-background:new    ;" d="
			M78.7,42.2c-21,0-37.7,16.6-37.7,37.7v131.8c92.8-39.4,197.3-73.5,305.8-96.3V79.9c0-21-16.6-37.7-37.7-37.7H78.7L78.7,42.2z"/>
	</g>
</g>
<g id="Layer_5">
	<polyline class="st16" points="141,32 141,40.4 141,162.6 77.5,162.6 196.1,291.5 308.4,162.6 244.7,162.6 244.7,40.4 244.7,32 	
		"/>
</g>
<g id="Layer_2">
	<rect x="633.6" y="66.8" class="st2" width="416.3" height="78.3"/>
	<text transform="matrix(1 0 0 1 633.6131 139.0685)" class="st3 st4 st17">This Old</text>
</g>
</svg>
